<?xml version="1.0" encoding="utf-8"?>
<!-- Generator: Adobe Illustrator 19.2.1, SVG Export Plug-In . SVG Version: 6.00 Build 0)  -->
<svg version="1.1" id="Layer_1" xmlns="http://www.w3.org/2000/svg" xmlns:xlink="http://www.w3.org/1999/xlink" x="0px" y="0px"
	 viewBox="0 0 24 24" style="enable-background:new 0 0 24 24;" xml:space="preserve">
<style type="text/css">
	.st0{fill:#FCD116;}
	.st1{fill:#EF4135;}
</style>
<g id="Germany_2_">
	<g>
		<path d="M12,0C6.8,0,2.3,3.4,0.7,8h22.6C21.6,3.4,17.2,0,12,0z"/>
		<path class="st0" d="M12,24c5.2,0,9.6-3.3,11.3-8H0.7C2.3,20.7,6.8,24,12,24z"/>
		<path class="st1" d="M0.7,16h22.6c0.4-1.2,0.7-2.6,0.7-4c0-1.4-0.2-2.8-0.7-4H0.7C0.2,9.3,0,10.6,0,12.1C0,13.4,0.2,14.8,0.7,16z"
			/>
	</g>
</g>
</svg>
