<?xml version="1.0" encoding="utf-8"?>
<!-- Generator: Adobe Illustrator 22.0.1, SVG Export Plug-In . SVG Version: 6.00 Build 0)  -->
<svg version="1.1" xmlns="http://www.w3.org/2000/svg" xmlns:xlink="http://www.w3.org/1999/xlink" x="0px" y="0px"
	 viewBox="0 0 108 108" style="enable-background:new 0 0 108 108;" xml:space="preserve">
<style type="text/css">
	.st0{fill:#FFFFFF;}
</style>
<g id="Layer_1">
	<title>icon</title>
	<desc>Created with Sketch.</desc>
</g>
<g id="Layer_2">
	<path class="st0" d="M70,30c0,2.7-0.6,5.3-1.8,7.6c0.2,0.4,0.5,0.8,0.6,1.3c1.6,4.7-10.7,35.9-10.3,39.6c0.8,6.1,7,9.4,5.9,11.5
		c-1.2,2.2-8.4,3-11.3,3c-2.9,0-10.1-0.7-11.3-2.9c-1.2-2.1,5.1-5.4,5.8-11.5c0.5-3.7-12.1-34.8-10.5-39.5c0.2-0.5,0.4-1,0.7-1.4
		C36.7,35.3,36,32.7,36,30c0-9.4,7.6-17,17-17S70,20.6,70,30z"/>
</g>
</svg>
